<svg xmlns="http://www.w3.org/2000/svg" xmlns:xlink="http://www.w3.org/1999/xlink" viewBox="0,0,256,256" width="24px" height="24px"><g fill="#ffffff" fill-rule="nonzero" stroke="none" stroke-width="1" stroke-linecap="butt" stroke-linejoin="miter" stroke-miterlimit="10" stroke-dasharray="" stroke-dashoffset="0" font-family="none" font-weight="none" font-size="none" text-anchor="none" style="mix-blend-mode: normal"><g transform="scale(10.66667,10.66667)"><path d="M4.0625,4c0,0 -0.53125,0.92578 -0.53125,2.5c0,1.04688 0.23438,1.625 0.40625,1.90625c-1.20312,1.25391 -1.9375,2.94141 -1.9375,5.125c0,5.59375 3.52734,7.46875 10,7.46875c6.47266,0 10,-1.875 10,-7.46875c0,-2.26172 -0.69531,-3.95703 -1.84375,-5.1875c0.28516,-0.85547 0.61328,-2.47266 -0.1875,-4.34375c-2.38672,0 -4.39844,1.83984 -4.46875,1.90625c-1.11328,-0.24609 -2.28906,-0.375 -3.5,-0.375c-1.23828,0 -2.45703,0.15625 -3.59375,0.4375c-1.59766,-1.58984 -3.51953,-1.96875 -4.34375,-1.96875zM15.21875,12c0.60156,-0.00781 1.16797,0.05469 1.65625,0.21875c1.30469,0.44141 2.125,1.72656 2.125,3.15625c-0.00391,3.96484 -2.00391,4.625 -7.125,4.625c-3.80859,0 -6.90625,-0.71484 -6.90625,-4.5c0,-1.44531 0.75,-2.27344 1.28125,-2.78125c1.16797,-1.11719 3.00781,-0.5625 5.625,-0.5625c1.1875,0 2.33984,-0.14453 3.34375,-0.15625zM8,14c-0.55078,0 -1,0.67188 -1,1.5c0,0.82813 0.44922,1.5 1,1.5c0.55078,0 1,-0.67187 1,-1.5c0,-0.82812 -0.44922,-1.5 -1,-1.5zM16,14c-0.55078,0 -1,0.67188 -1,1.5c0,0.82813 0.44922,1.5 1,1.5c0.55078,0 1,-0.67187 1,-1.5c0,-0.82812 -0.44922,-1.5 -1,-1.5z"></path></g></g></svg>